<?xml version="1.0" encoding="utf-8"?>
<!-- Generator: Adobe Illustrator 18.1.0, SVG Export Plug-In . SVG Version: 6.00 Build 0)  -->
<svg version="1.1" id="Layer_1" xmlns="http://www.w3.org/2000/svg" xmlns:xlink="http://www.w3.org/1999/xlink" x="0px" y="0px"
	 viewBox="0 0 600 142" enable-background="new 0 0 600 142" xml:space="preserve">
<g>
	<path fill="#D6AA51" d="M8,126.4c0,0,1.7-2,2.4-3.2c0.7-1.1,11.5-20,13.4-22.5c-2.9,0.8-5.1,1.5-6.5,2.1c-0.6,0.3-1.1,0.4-1.5,0.3
		c-0.4-0.1-0.6-0.3-0.7-0.6c-0.1-0.3-0.1-0.7,0.1-1.2c0.2-0.5,0.6-0.9,1.1-1.3c0.7-0.6,2.2-1.3,4.4-2.2c2.2-0.9,4.7-1.9,7.6-3.1
		c1.7-2.3,3.4-4.7,5.1-7c1.7-2.3,3.4-4.6,5-6.8c1.6-2.2,3.1-4.2,4.5-6.1c1.4-1.9,2.6-3.6,3.7-5.1c-2.6,0.8-5.2,1.6-7.5,2.4
		c-2.4,0.8-4.5,1.5-6.5,2.2c-1.9,0.7-3.6,1.3-5,1.8c-1.4,0.5-2.4,0.9-3.1,1.2c-0.7,0.3-1.2,0.2-1.5-0.3c-0.3-0.5-0.3-1.2-0.2-1.9
		c0.1-0.8,0.4-1.6,0.8-2.4c0.4-0.8,0.8-1.4,1.4-1.7c1.7-1,4.3-2.2,7.8-3.5c3.4-1.3,7.3-2.6,11.5-3.9c4.2-1.3,8.6-2.6,13.2-3.8
		c4.6-1.2,8.9-2.3,13-3.3c4.1-0.9,7.7-1.7,10.9-2.2c3.2-0.5,5.4-0.7,6.8-0.7c0.5,0,0.8,0.4,1,1.2c0.1,0.8,0.2,1.6,0,2.6
		c-0.1,0.9-0.4,1.8-0.8,2.5c-0.4,0.8-0.9,1.2-1.4,1.1c-0.9,0-2.4,0.1-4.4,0.4c-2,0.3-4.1,0.7-6.4,1.1c-2.3,0.4-4.6,0.9-6.8,1.3
		c-2.3,0.5-4.1,0.8-5.5,1.1c-1.4,0.4-2.8,0.7-4.1,1c-1.4,0.3-2.7,0.6-4.1,1c-1,2-2.9,5-5.8,9.1c-2.9,4.1-6.3,8.9-10.2,14.6
		c3.4-1.1,6.6-2.1,9.6-2.9c2.9-0.8,5.1-1.3,6.5-1.4c0.5-0.1,1.1,0.2,1.8,0.8c0.7,0.6,1.3,1.4,1.8,2.2c0.5,0.8,0.8,1.6,0.8,2.3
		c0.1,0.7-0.3,1.1-1.2,1.3c-1.1,0.2-2.6,0.5-4.4,0.8c-1.8,0.3-3.7,0.7-5.9,1.2c-2.2,0.4-4.5,0.9-6.9,1.5c-2.4,0.5-4.8,1.1-7.2,1.6
		c-3.7,5.5-6.8,10.4-9.4,14.6c-2.6,4.2-4.5,7.4-5.8,9.5c3.7-1.3,7.5-2.4,11.4-3.5c3.9-1,7.5-1.9,10.9-2.5c3.4-0.7,6.3-1.1,8.9-1.3
		c2.5-0.2,4.3,0,5.4,0.4c0.6,0.3,1,1,1.1,2.1c0.1,1.1,0,2.2-0.3,3.4c-0.3,1.2-0.8,2.1-1.4,3c-0.6,0.8-1.3,1.2-2.1,1
		c-1.2-0.2-2.9-0.3-5.2-0.2c-2.3,0.1-4.9,0.3-7.7,0.7c-2.9,0.4-6,0.8-9.3,1.4c-3.3,0.6-6.5,1.3-9.7,2.1c-3.2,0.8-6.2,1.6-9.1,2.5
		c-2.9,0.9-5.4,1.9-7.5,2.8c-0.9,0.4-1.4,0.4-1.6-0.2c-0.2-0.6-0.1-1.3,0.3-2.2c0.4-0.9,1-1.9,1.8-2.9C6,127.6,6.9,126.8,8,126.4z"
		/>
	<path fill="#D6AA51" d="M133.2,84.9c1.1-1.4,2-2.1,2.7-2.2c0.7-0.1,0.7,0.5-0.1,1.8c-2,3-4,6-6,8.8c-2,2.9-3.9,5.6-5.9,8
		c-2,2.5-3.9,4.6-5.9,6.4c-2,1.8-4,3.1-6,3.8c-1,0.4-2,0.2-3-0.5c-1-0.7-1.9-1.8-2.6-3.2c-0.7-1.4-1.1-3.1-1.3-5
		c-0.2-1.9,0.1-3.8,0.8-5.7c0.3-0.8,0.9-1.8,1.9-3.2c1-1.3,2.1-2.7,3.3-4.1c1.2-1.4,2.5-2.8,3.8-4.2c1.3-1.4,2.4-2.6,3.3-3.6
		c-2.1,1.4-4.5,3.5-7.3,6.2c-2.8,2.7-5.6,5.7-8.5,8.8c-2.9,3.2-5.6,6.4-8.3,9.7c-2.7,3.3-4.9,6.2-6.8,8.8c-0.3,0.4-0.8,0.6-1.4,0.6
		c-0.6,0-1.3-0.2-1.9-0.5c-0.6-0.3-1.2-0.7-1.7-1.3c-0.5-0.6-0.8-1.1-0.8-1.8c-0.1-0.6,0.2-1.5,0.8-2.8c0.6-1.3,1.4-2.7,2.3-4.3
		c1-1.6,2-3.3,3.2-5.1c1.2-1.8,2.4-3.5,3.5-5.1c1.2-1.6,2.3-3.1,3.3-4.4c1-1.3,1.8-2.3,2.5-3c-2.1,1.4-4.6,3.4-7.6,5.8
		c-3,2.4-6,5-9.1,7.9c-3.1,2.8-6.1,5.7-9,8.7c-2.9,3-5.3,5.8-7.2,8.4c-0.3,0.4-0.8,0.6-1.5,0.7c-0.7,0.1-1.4,0-2.2-0.2
		c-0.7-0.2-1.4-0.5-1.9-1c-0.5-0.4-0.8-1-0.8-1.6c0-0.4,0.5-1.4,1.5-3.1c1-1.6,2.3-3.6,3.8-5.9c1.6-2.3,3.3-4.7,5.1-7.4
		c1.9-2.6,3.6-5.2,5.4-7.7c1.7-2.5,3.3-4.8,4.6-6.9c1.4-2.1,2.3-3.6,2.8-4.7c0.2-0.4,0.7-0.6,1.5-0.6c0.8,0,1.5,0.2,2.3,0.6
		c0.8,0.3,1.4,0.8,1.9,1.4c0.5,0.6,0.6,1.3,0.3,2.1c-0.5,1.3-1.5,2.9-3,5c-1.5,2-3.2,4.2-5.1,6.6c-1.9,2.4-3.7,4.8-5.5,7.2
		c-1.8,2.5-3.3,4.7-4.4,6.9c2.1-2.5,4.5-5.2,7-8.2c2.5-3,5.1-6,7.6-9c2.6-3,5.1-5.7,7.5-8.2c2.5-2.5,4.7-4.4,6.7-5.9
		c0.7-0.5,1.7-0.8,2.8-0.7c1.1,0.1,2.2,0.3,3.1,0.6c1,0.4,1.7,0.9,2.2,1.5c0.5,0.6,0.6,1.3,0.2,2c-0.6,1-1.4,2.2-2.3,3.5
		c-0.9,1.3-1.9,2.7-2.9,4.2c-1,1.4-2,2.9-3,4.3c-1,1.4-1.8,2.7-2.6,3.9c-0.7,1.2-1.3,2.2-1.7,3c-0.4,0.8-0.5,1.3-0.3,1.5
		c2.1-2.3,4.2-4.8,6.3-7.6c2.1-2.8,4.3-5.5,6.4-8.1c2.1-2.7,4.3-5.1,6.3-7.5c2.1-2.3,4.1-4.2,6.2-5.6c0.4-0.5,1.1-0.6,2.2-0.5
		c1,0.1,2.1,0.4,3.1,0.9c1,0.4,1.8,1,2.5,1.6c0.6,0.6,0.8,1.2,0.5,1.7c-1.7,2.4-3.6,5-5.7,7.8c-2.1,2.8-4.1,5.4-6,7.8
		c-1.8,2.4-3.3,4.6-4.4,6.4c-1.1,1.8-1.4,3-1,3.5c0.4,0.4,1.1,0.4,2.2,0c1.1-0.4,2.3-1.1,3.7-2c1.4-1,2.9-2.1,4.6-3.5
		c1.6-1.4,3.2-2.8,4.8-4.4c1.6-1.5,3.1-3,4.4-4.5C131.1,87.4,132.3,86,133.2,84.9z"/>
	<path fill="#D6AA51" d="M175.6,67.7c0.7-0.3,1.3-0.5,1.7-0.5c0.5-0.1,0.8,0,0.8,0.2c0.1,0.2-0.1,0.6-0.5,1.1
		c-0.4,0.5-1.1,1.1-2.1,1.8c-0.8,0.6-1.8,1.3-3,2c-1.2,0.7-2.4,1.3-3.6,1.9c-1.3,0.6-2.5,1-3.8,1.3c-1.2,0.3-2.4,0.4-3.4,0.2
		c-0.5,1.4-1.2,3.2-2.2,5.2c-1,2-2.3,4.2-3.7,6.4c-1.4,2.3-3,4.5-4.7,6.7c-1.7,2.2-3.4,4.2-5.1,6.1c-1.7,1.9-3.4,3.4-5.2,4.6
		c-1.7,1.2-3.3,2-4.7,2.2c-1.8,0.3-3.4,0-4.6-1c-1.3-1-2.3-2.1-3-3.4c-4.6,7.6-8,13.7-10.3,18.2c-2.3,4.5-3.9,7.2-4.8,8.2
		c-0.5,0.5-1,0.5-1.7,0.2c-0.7-0.4-1.3-0.9-1.9-1.6c-0.6-0.7-1-1.5-1.3-2.4c-0.3-0.9-0.3-1.5,0.1-2c0.4-0.5,1.2-1.6,2.5-3.4
		c1.3-1.8,2.8-4.1,4.6-6.8c1.8-2.7,3.8-5.8,6-9.3c2.2-3.5,4.4-7.1,6.7-10.9c2.3-3.8,4.1-7,5.7-9.5c1.5-2.6,2.8-4.8,3.8-6.5
		c1-1.8,1.8-3.3,2.5-4.5c0.6-1.2,1.2-2.4,1.7-3.6c0.3-0.6,0.7-0.9,1.3-0.8c0.6,0.1,1.1,0.3,1.6,0.8c0.5,0.5,0.9,1.1,1.1,1.8
		c0.3,0.7,0.2,1.4-0.2,2.2l-1.5,2.8c1.9-2.3,3.8-4.2,5.7-5.9c1.9-1.7,3.5-2.7,4.8-3c1.4-0.3,2.6-0.1,3.8,0.7
		c1.2,0.8,2.1,1.7,2.7,2.8c0.2,0.2,0.6,0.5,1.2,0.7c0.6,0.2,1.4,0.3,2.5,0.2c1.1-0.1,2.5-0.3,4.2-0.8
		C171,69.6,173.1,68.8,175.6,67.7z M136.9,91.1c-0.3,0.5-0.9,1.3-1.6,2.3c-0.7,1-1.4,2.1-1.9,3.1c-0.6,1-1,2-1.1,2.8
		c-0.2,0.8,0.1,1.3,0.9,1.4c1,0.1,2.2-0.4,3.8-1.6c1.6-1.2,3.2-2.8,4.9-4.7c1.7-1.9,3.4-4,5.1-6.4c1.7-2.3,3.1-4.5,4.3-6.6
		c1.2-2.1,2-3.9,2.5-5.5c0.5-1.5,0.3-2.5-0.4-2.9c-0.7-0.3-1.6-0.1-2.9,0.8c-1.3,0.9-2.7,2.1-4.2,3.7c-1.6,1.6-3.2,3.4-4.9,5.4
		c-1.7,2-3.3,4-4.8,6c0.3,0.3,0.5,0.6,0.6,1C137.3,90.4,137.2,90.7,136.9,91.1z"/>
	<path fill="#D6AA51" d="M201,42.2c-0.5,0.8-1.2,1.9-2.3,3.4c-1.1,1.5-2.4,3.3-3.9,5.2c-1.5,2-3.1,4.1-4.9,6.4
		c-1.7,2.3-3.5,4.6-5.3,7c-1.8,2.3-3.6,4.6-5.3,6.8c-1.7,2.2-3.3,4.2-4.6,6.1c-1.4,1.8-2.5,3.4-3.5,4.6c-1,1.3-1.6,2.1-1.9,2.5
		c-1.5,2.1-2.5,4-3.1,5.7c-0.6,1.7-0.7,2.8-0.3,3.1c0.4,0.4,1.3,0.2,2.8-0.5c1.5-0.7,3.2-1.9,5.3-3.5c2.1-1.6,4.4-3.6,6.9-6
		c2.5-2.4,5-5.1,7.6-8.1c0.4-0.5,0.8-0.9,1.4-1.2c0.5-0.3,0.9-0.6,1.3-0.6c0.3-0.1,0.5,0,0.5,0.2c0,0.2-0.2,0.6-0.6,1.2
		c-3.5,4.6-6.6,8.7-9.3,12.1c-2.6,3.5-5,6.4-7.1,8.7c-2.1,2.4-3.9,4.2-5.5,5.4c-1.6,1.2-3,1.9-4.4,2.1c-1.4,0.2-2.3-0.4-2.8-1.9
		c-0.5-1.5-0.7-3.6-0.4-6.1c0.3-2.6,1-5.6,2.1-9c1.1-3.4,2.7-6.9,4.7-10.4c0.5-0.9,1.4-2.2,2.7-4.1c1.3-1.9,2.8-4,4.5-6.3
		c1.7-2.4,3.5-4.9,5.5-7.5c1.9-2.7,3.8-5.3,5.7-7.8c1.8-2.6,3.5-5,5-7.3c1.5-2.3,2.7-4.2,3.6-5.8c0.3-0.6,0.9-0.8,1.6-0.5
		c0.7,0.3,1.4,0.9,2.1,1.6c0.7,0.8,1.2,1.6,1.6,2.4C201.2,41.1,201.3,41.8,201,42.2z"/>
	<path fill="#D6AA51" d="M228.9,58.3c1.9-0.7,2.7-0.7,2.6-0.1c-0.1,0.7-1,1.5-2.6,2.6c-1.2,0.8-2.5,1.6-4.1,2.4
		c-1.5,0.7-3.1,1.4-4.7,2.1c-1.6,0.6-3.2,1.2-4.7,1.6c-1.5,0.5-2.9,0.8-4.1,1.1c-1.1,3-2.6,6.3-4.3,9.7c-1.7,3.5-3.6,6.7-5.5,9.8
		c-1.9,3.1-3.9,5.7-5.9,8c-2,2.2-3.7,3.6-5.2,4.1c-1,0.3-1.9,0.1-3-0.5c-1-0.6-1.9-1.5-2.7-2.7c-0.8-1.2-1.4-2.6-1.9-4.2
		c-0.5-1.6-0.6-3.1-0.4-4.7c0.2-1.8,1.1-4.1,2.5-6.8c1.5-2.7,3.3-5.4,5.4-8.1c2.1-2.7,4.4-5.3,6.8-7.6c2.4-2.3,4.6-4.1,6.6-5.2
		c0.7-1.4,1.5-2.5,2.5-3.4s2-1.5,3-1.7c1-0.2,1.8,0,2.6,0.7c0.8,0.7,1.3,1.9,1.4,3.8c0.1,0.8,0,1.9-0.3,3.1c2.4-0.2,5-0.6,7.8-1.2
		C223.7,60.2,226.4,59.4,228.9,58.3z M186.9,89.4c-0.2,0.9-0.1,1.5,0.2,1.8c0.3,0.3,0.8,0.3,1.4,0.1c0.6-0.2,1.3-0.6,2.1-1.1
		c0.8-0.5,1.6-1.1,2.4-1.8c1.1-0.9,2.3-2.2,3.5-3.7c1.3-1.6,2.6-3.3,3.8-5.1c1.3-1.9,2.5-3.8,3.5-5.8c1.1-2,2-3.9,2.6-5.7
		c-1-0.3-1.7-0.7-2.2-1.2c-1.7,0.9-3.5,2.2-5.4,4.1c-1.9,1.9-3.7,3.9-5.4,6.2c-1.7,2.2-3.1,4.5-4.3,6.7
		C188,86.1,187.3,87.9,186.9,89.4z"/>
	<path fill="#D6AA51" d="M248.7,53.1c0.5-0.5,1-0.7,1.7-0.6c0.7,0.1,1.3,0.4,1.9,0.8c0.6,0.4,1,1,1.3,1.5c0.3,0.6,0.3,1.1,0,1.5
		c-1.6,2-3.4,4.6-5.4,7.7c-2,3.1-4.3,6.8-6.8,11c-1.5,2.6-3,5.2-4.4,7.8c-1.4,2.6-2.8,5-4,7.4c2.3-2.5,4.6-5.2,7.1-8
		c2.5-2.9,4.8-5.6,7-8.1c2.2-2.5,4.1-4.8,5.8-6.8c1.7-2,2.8-3.4,3.4-4.2c0.4-0.5,0.8-0.9,1.3-1.2c0.5-0.3,0.9-0.5,1.1-0.5
		c0.3,0,0.5,0.1,0.5,0.3c0.1,0.2-0.1,0.6-0.4,1c-0.5,0.6-1.3,1.7-2.7,3.4c-1.3,1.7-2.9,3.7-4.8,6c-1.9,2.4-4,4.9-6.2,7.7
		c-2.3,2.8-4.5,5.6-6.8,8.4c-2.3,2.8-4.4,5.5-6.5,8.1c-2.1,2.6-3.8,4.8-5.4,6.7c-1.5,3.2-2.4,5.4-2.7,6.6c-0.2,0.5-0.6,0.9-1.4,1
		c-0.8,0.1-1.6,0.1-2.4-0.1c-0.8-0.2-1.5-0.6-2.2-1.1c-0.6-0.5-0.8-1.2-0.7-2c0.3-1.2,1.8-4.2,4.5-8.9c2.7-4.7,6.5-11,11.4-19
		c0.7-1.1,1.4-2.2,2-3.3c0.6-1,1.2-2,1.8-3c-1.2,1.4-2.7,3.2-4.3,5.3s-3.2,4.2-4.8,6.3c-1.6,2.1-3.1,3.9-4.6,5.4
		c-1.4,1.5-2.6,2.4-3.5,2.6c-1.1,0.2-2-0.3-2.7-1.4c-0.7-1.1-1.2-2.6-1.4-4.4c-0.3-1.8-0.3-3.6-0.1-5.6c0.2-1.9,0.6-3.7,1.3-5.1
		c0.5-1,1.2-2.2,2.2-3.8c1-1.6,2.1-3.2,3.3-5c1.2-1.8,2.4-3.5,3.7-5.3c1.3-1.8,2.5-3.4,3.7-4.9c1.2-1.5,2.1-2.7,3-3.7
		c0.8-1,1.4-1.6,1.6-1.7c0.4-0.2,0.9-0.2,1.4,0.1c0.6,0.3,1.1,0.8,1.6,1.3c0.5,0.5,0.8,1.1,1,1.8c0.2,0.6,0.1,1.2-0.2,1.6
		c-0.8,1.3-2,2.8-3.3,4.5c-1.4,1.7-2.8,3.5-4.3,5.5c-1.5,1.9-3,3.9-4.4,5.8c-1.5,1.9-2.7,3.8-3.8,5.4c-1.1,1.7-1.8,3.2-2.3,4.4
		c-0.5,1.3-0.5,2.2,0,2.7c0.4,0.4,1.2,0.3,2.3-0.4c1.2-0.7,2.5-1.8,4.1-3.3c1.6-1.5,3.3-3.2,5.2-5.3c1.9-2.1,3.6-4.2,5.3-6.5
		c1.6-2.2,3.1-4.2,4.5-6.1c1.4-1.9,2.6-3.5,3.7-5c1.1-1.5,1.9-2.6,2.6-3.6C248,53.9,248.5,53.3,248.7,53.1z"/>
	<path fill="#D6AA51" d="M281.4,47c1,0.8,1.7,1.7,2.3,2.8c0.6,1.1,0.7,2.4,0.5,3.9c-0.2,0.7-0.9,1.7-2.1,3.1
		c-1.2,1.4-2.8,2.8-4.9,4.2c-2.1,1.4-4.5,2.8-7.3,4c-2.8,1.2-5.9,2.1-9.3,2.6c-1.3,2.2-2.2,4.1-2.7,5.9c-0.5,1.7-0.5,2.9,0.2,3.5
		c0.6,0.5,1.5,0.6,2.9,0.2c1.4-0.4,2.9-1.1,4.8-2c1.8-1,3.8-2.2,5.9-3.6c2.1-1.4,4.2-3,6.3-4.6c2.1-1.6,4-3.3,5.8-4.9
		c1.8-1.6,3.3-3.2,4.5-4.5c1.4-1.5,2.3-2.3,2.9-2.3c0.6,0,0.5,0.6-0.3,1.9c-0.4,0.7-1.2,1.8-2.5,3.4c-1.3,1.5-2.8,3.3-4.6,5.3
		c-1.8,2-3.7,4.1-5.7,6.2c-2.1,2.1-4.1,4.1-6.1,6c-2,1.8-3.9,3.4-5.6,4.7c-1.7,1.3-3.2,2.1-4.3,2.4c-1.5,0.4-2.8-0.1-4-1.3
		c-1.2-1.2-2.2-2.8-3-4.7c-0.8-1.9-1.3-3.9-1.5-6c-0.2-2.1-0.1-3.9,0.5-5.3c0.8-2.1,2-4.4,3.5-6.8c1.6-2.4,3.3-4.7,5.2-6.8
		c1.9-2.1,3.8-4,5.8-5.7c2-1.6,3.8-2.8,5.4-3.4c1-0.4,2.2-0.5,3.6-0.2C279,45.3,280.3,46,281.4,47z M278.9,49.9
		c-0.3-0.3-0.8-0.5-1.4-0.4c-0.6,0.1-1.1,0.3-1.7,0.6c-1,0.5-2,1.3-3.2,2.3c-1.2,1.1-2.4,2.3-3.6,3.6c-1.2,1.3-2.4,2.8-3.6,4.4
		c-1.2,1.6-2.3,3.1-3.3,4.7c1-0.2,2.1-0.7,3.4-1.5c1.3-0.8,2.6-1.6,4-2.6c1.4-1,2.7-2.1,3.9-3.2c1.3-1.1,2.4-2.2,3.3-3.2
		c0.9-1,1.6-2,2-2.8C279.2,50.9,279.2,50.3,278.9,49.9z"/>
	<path fill="#D6AA51" d="M313.4,41.3c1,0.8,1.7,1.7,2.3,2.8c0.6,1.1,0.7,2.4,0.5,3.9c-0.2,0.7-0.9,1.7-2.1,3.1
		c-1.2,1.4-2.8,2.8-4.9,4.2c-2.1,1.4-4.5,2.8-7.3,4c-2.8,1.2-5.9,2.1-9.3,2.6c-1.3,2.2-2.2,4.2-2.7,5.9c-0.5,1.7-0.5,2.9,0.2,3.5
		c0.6,0.5,1.6,0.6,3,0.2c1.4-0.4,3.1-1.1,5-2.1c1.9-1,3.9-2.3,6.1-3.8c2.2-1.5,4.3-3.1,6.3-4.8c0.8-0.7,1.4-0.9,1.5-0.6s0,1-0.5,2.1
		c-0.5,1.1-1.4,2.4-2.6,4.1c-1.2,1.7-2.7,3.5-4.6,5.5c-2,2.1-3.9,3.8-5.8,5.1c-1.9,1.3-3.4,2.1-4.5,2.4c-1.5,0.4-2.8-0.1-4-1.3
		c-1.2-1.2-2.2-2.8-3-4.7c-0.8-1.9-1.3-3.9-1.5-6c-0.2-2.1-0.1-3.9,0.5-5.3c0.8-2.1,2-4.4,3.5-6.8c1.6-2.4,3.3-4.7,5.2-6.8
		c1.9-2.1,3.8-4,5.8-5.7c2-1.6,3.8-2.8,5.4-3.4c1-0.4,2.2-0.5,3.6-0.2C310.9,39.6,312.2,40.2,313.4,41.3z M310.8,44.1
		c-0.3-0.3-0.8-0.5-1.4-0.4c-0.6,0.1-1.1,0.3-1.7,0.6c-1,0.5-2,1.3-3.2,2.3c-1.2,1.1-2.4,2.3-3.6,3.6c-1.2,1.3-2.4,2.8-3.6,4.4
		c-1.2,1.6-2.3,3.1-3.3,4.7c1-0.2,2.1-0.7,3.4-1.5c1.3-0.8,2.6-1.6,4-2.6c1.4-1,2.7-2.1,3.9-3.2c1.3-1.1,2.4-2.2,3.3-3.2
		c0.9-1,1.6-2,2-2.8C311.1,45.1,311.2,44.5,310.8,44.1z"/>
</g>
<g>
	<path fill="#D6AA51" d="M302.9,96.1c1.4-0.5,2.1-0.6,2-0.1c-0.1,0.5-0.7,1.2-2,2c-0.9,0.6-1.9,1.2-3.1,1.8
		c-1.1,0.6-2.3,1.1-3.5,1.5c-1.2,0.5-2.4,0.9-3.5,1.2c-1.1,0.4-2.2,0.6-3.1,0.8c-0.8,2.3-1.9,4.7-3.2,7.3c-1.3,2.6-2.7,5.1-4.2,7.4
		c-1.5,2.3-2.9,4.3-4.4,6c-1.5,1.7-2.8,2.7-3.9,3.1c-0.7,0.2-1.5,0.1-2.2-0.4c-0.8-0.5-1.4-1.1-2-2.1c-0.6-0.9-1.1-2-1.4-3.1
		c-0.3-1.2-0.4-2.4-0.3-3.6c0.2-1.4,0.8-3.1,1.9-5.1c1.1-2,2.5-4.1,4-6.1c1.6-2.1,3.3-4,5.1-5.7c1.8-1.8,3.5-3.1,5-3.9
		c0.5-1,1.1-1.9,1.9-2.6c0.8-0.7,1.5-1.1,2.2-1.3c0.7-0.2,1.4,0,2,0.5c0.6,0.5,1,1.5,1.1,2.8c0,0.6,0,1.4-0.2,2.3
		c1.8-0.1,3.7-0.4,5.9-0.9C298.9,97.5,300.9,96.9,302.9,96.1z M271.2,119.5c-0.1,0.7-0.1,1.1,0.2,1.3c0.2,0.2,0.6,0.2,1.1,0.1
		c0.5-0.1,1-0.4,1.6-0.8c0.6-0.4,1.2-0.8,1.8-1.3c0.8-0.7,1.7-1.6,2.7-2.8c1-1.2,1.9-2.5,2.9-3.9c1-1.4,1.8-2.8,2.7-4.4
		c0.8-1.5,1.5-2.9,1.9-4.3c-0.7-0.2-1.3-0.5-1.7-0.9c-1.3,0.6-2.6,1.7-4.1,3.1c-1.4,1.4-2.8,3-4,4.7c-1.3,1.7-2.3,3.4-3.2,5
		C272.1,117,271.5,118.4,271.2,119.5z"/>
	<path fill="#D6AA51" d="M317.5,73.8c0.3-0.5,0.7-0.7,1.1-0.6c0.5,0.1,0.9,0.3,1.4,0.7c0.4,0.4,0.8,0.8,1.1,1.3
		c0.3,0.5,0.4,0.9,0.4,1.2c0,0.3-0.5,1.2-1.4,2.6c-0.9,1.5-2.1,3.3-3.6,5.5c-1.5,2.2-3.2,4.8-5.2,7.6c-2,2.8-4.1,5.8-6.3,8.9
		c0,0.1,0,0.1,0.1,0.2c2.3-0.4,4.3-0.9,6-1.7c1.7-0.8,3-1.5,3.9-2.1c0.5-0.4,0.8-0.4,1,0c0.1,0.4,0.1,0.9-0.1,1.6
		c-0.2,0.7-0.5,1.4-0.9,2.1c-0.4,0.7-0.8,1.3-1.3,1.6c-1.3,0.9-2.6,1.5-3.9,1.8c-1.3,0.4-2.5,0.5-3.6,0.5c0,0.3,0.1,0.7,0,1
		c0,0.3-0.1,0.6-0.1,0.9c-0.1,3.2-0.7,6.4-1.9,9.7c-1.2,3.3-2.6,6.3-4.3,9.1c-1.7,2.8-3.3,5-5.1,6.8c-1.7,1.8-3.1,2.8-4.2,3
		c-0.8,0.1-1.5-0.1-2-0.7c-0.5-0.6-0.9-1.4-1.2-2.4c-0.3-1-0.4-2.2-0.5-3.6c-0.1-1.3,0-2.7,0.1-4.2c0.1-1.4,0.4-2.8,0.7-4.2
		c0.3-1.4,0.8-2.5,1.3-3.6c1-2.1,2.4-4.5,4-7.1c1.7-2.7,3.5-5.5,5.6-8.5c-0.6-1-0.8-1.9-0.7-2.8c0-0.3,0.2-0.5,0.4-0.9
		c0.2-0.3,0.5-0.6,0.8-0.8c0.3-0.2,0.7-0.4,1-0.5c0.4-0.1,0.7-0.1,0.9,0.1l0.6,0.4c2.8-4.1,5.6-8.1,8.3-12.1
		C312.9,80.9,315.4,77.2,317.5,73.8z M289.9,127.8c0.2,0.3,0.7,0.3,1.4-0.2c0.7-0.5,1.5-1.2,2.4-2.3c0.9-1,1.9-2.3,2.9-3.9
		c1-1.5,2-3.2,2.9-5.1c0.9-1.8,1.7-3.8,2.4-5.8c0.7-2,1.2-4,1.4-6l-0.4-0.2c-2.2,3.1-4.1,5.9-5.9,8.5c-1.8,2.6-3.2,4.9-4.4,6.9
		c-1.1,2-2,3.7-2.5,5.1C289.5,126.3,289.5,127.2,289.9,127.8z"/>
	<path fill="#D6AA51" d="M335.6,82c0.3,0.1,0.8,0.2,1.6,0.1c0.8-0.1,1.7-0.2,2.8-0.3c1.1-0.2,2.2-0.4,3.4-0.6
		c1.2-0.2,2.3-0.5,3.3-0.7c1.3-1.8,2.5-3.5,3.6-5.2c1.1-1.7,2-3.1,2.7-4.5c0.3-0.5,0.7-0.6,1.2-0.4c0.6,0.2,1.1,0.5,1.6,1
		c0.5,0.5,0.9,1,1.2,1.6c0.3,0.6,0.3,1.1,0.1,1.4c-0.2,0.4-0.5,0.8-0.8,1.3c-0.3,0.5-0.7,1-1.1,1.6c0.7-0.2,1.3-0.3,1.8-0.4
		c0.5-0.1,0.9,0,1.1,0.2c0.3,0.2,0.5,0.6,0.5,1.2c0,0.6-0.1,1.2-0.3,1.8c-0.2,0.6-0.4,1-0.8,1.4c-0.3,0.3-0.7,0.3-1.1,0
		c-0.3-0.2-0.9-0.3-1.8-0.2c-0.9,0.1-1.8,0.3-2.8,0.6c-1.1,1.6-2.4,3.3-3.7,5c-1.3,1.8-2.6,3.5-3.9,5.2c-1.3,1.7-2.5,3.3-3.6,4.9
		c-1.1,1.5-2,2.8-2.7,3.9c-0.6,0.8-1,1.6-1.5,2.4c-0.4,0.8-0.8,1.4-1,2.1c-0.3,0.6-0.4,1.1-0.5,1.6c-0.1,0.4,0,0.7,0.1,0.9
		c0.3,0.3,1,0.2,2.1-0.3c1.1-0.5,2.4-1.3,4-2.4c1.6-1.1,3.3-2.6,5.2-4.3c1.9-1.7,3.8-3.7,5.7-6c0.4-0.5,0.8-0.9,1.2-1.2
		c0.4-0.3,0.7-0.4,0.9-0.4c0.2,0,0.3,0.1,0.3,0.3c0,0.2-0.2,0.5-0.5,1c-5.4,7-9.9,12.3-13.4,15.9c-3.6,3.6-6,5.4-7.3,5.7
		c-1.1,0.2-1.8-0.3-2.2-1.5c-0.4-1.2-0.4-2.8-0.1-4.8c0.3-2,0.8-4.1,1.6-6.5c0.8-2.4,1.8-4.7,3-6.9c0.6-1.1,1.7-2.7,3.2-4.9
		c1.5-2.2,3.3-4.5,5.1-7.1c-2.2,0.6-4.2,1.1-5.8,1.4c-1.6,0.3-2.6,0.4-3,0.3c-0.5-0.1-0.9-0.5-1.1-1c-0.2-0.5-0.3-1.1-0.3-1.6
		c0-0.5,0.2-0.9,0.5-1.3C334.7,81.8,335.1,81.7,335.6,82z"/>
	<path fill="#D6AA51" d="M383.6,89.1c0.4-0.5,0.8-0.9,1.1-1.2c0.4-0.3,0.7-0.4,0.9-0.5c0.2,0,0.3,0.1,0.3,0.3c0,0.2-0.1,0.6-0.4,1
		c-1.5,2.3-3,4.5-4.5,6.6c-1.5,2.2-3,4.2-4.5,6c-1.5,1.8-3,3.4-4.5,4.8c-1.5,1.3-3,2.3-4.6,2.9c-0.8,0.3-1.5,0.2-2.3-0.4
		c-0.8-0.5-1.4-1.3-1.9-2.4c-0.5-1.1-0.8-2.3-1-3.7c-0.1-1.4,0.1-2.9,0.6-4.4c0.2-0.6,0.7-1.4,1.4-2.4c0.7-1,1.5-2,2.5-3.1
		c0.9-1.1,1.8-2.1,2.8-3.2c1-1,1.8-1.9,2.5-2.7c-1.6,1-3.5,2.6-5.8,4.5c-2.3,2-4.6,4.2-7,6.5c-2.4,2.3-4.7,4.7-6.9,7.1
		c-2.2,2.4-4,4.6-5.5,6.5c-0.2,0.3-0.6,0.4-1.1,0.4c-0.5,0-1-0.1-1.5-0.3c-0.5-0.2-0.9-0.6-1.3-1c-0.4-0.4-0.6-0.9-0.6-1.3
		c0-0.3,0.4-1.1,1.3-2.5c0.9-1.4,2-3.1,3.5-5.3c1.4-2.1,3.1-4.6,5-7.2c1.9-2.7,3.8-5.4,5.7-8.2c2-2.8,3.9-5.5,5.8-8.3
		c1.9-2.7,3.6-5.2,5.1-7.4c1.5-2.2,2.8-4.1,3.8-5.6c1-1.5,1.6-2.5,1.8-2.9c0.2-0.3,0.5-0.4,1.1-0.4c0.6,0.1,1.1,0.3,1.7,0.7
		c0.6,0.3,1,0.8,1.4,1.3c0.4,0.5,0.4,1,0.1,1.6c-0.7,1.4-1.8,3.2-3.3,5.3c-1.5,2.1-3.2,4.4-5.1,6.8c-1.9,2.4-3.8,4.9-5.9,7.5
		c-2.1,2.6-4,5-5.8,7.3c-1.8,2.3-3.4,4.3-4.7,6.1c-1.4,1.8-2.3,3.1-2.8,4c1.6-1.9,3.4-3.8,5.2-5.8c1.9-2,3.8-4,5.7-5.9
		c1.9-1.9,3.8-3.7,5.6-5.3c1.8-1.6,3.5-3,5-4.1c0.3-0.3,0.8-0.5,1.6-0.4c0.8,0.1,1.5,0.3,2.3,0.6c0.8,0.3,1.4,0.7,1.9,1.2
		c0.5,0.5,0.6,0.9,0.3,1.3c-1.3,1.8-2.7,3.8-4.3,5.9c-1.6,2.1-3.1,4-4.5,5.9c-1.4,1.9-2.5,3.5-3.3,4.8c-0.8,1.4-1,2.2-0.7,2.6
		c0.3,0.3,0.8,0.3,1.7,0.1c0.8-0.3,1.7-0.8,2.8-1.5c1.1-0.7,2.2-1.6,3.4-2.7c1.2-1,2.4-2.1,3.6-3.2c1.2-1.1,2.3-2.3,3.3-3.4
		C382,91,382.9,90,383.6,89.1z"/>
	<path fill="#D6AA51" d="M402.5,76.9c0.7,0.6,1.3,1.3,1.8,2.1c0.4,0.8,0.6,1.8,0.4,3c-0.1,0.5-0.6,1.3-1.6,2.3
		c-0.9,1-2.1,2.1-3.7,3.2c-1.5,1.1-3.4,2.1-5.5,3c-2.1,0.9-4.5,1.6-7,1.9c-1,1.7-1.7,3.1-2.1,4.4c-0.4,1.3-0.3,2.2,0.2,2.6
		c0.4,0.4,1.2,0.4,2.3,0.1c1.1-0.3,2.3-0.8,3.8-1.6c1.4-0.8,2.9-1.7,4.6-2.8c1.6-1.1,3.2-2.3,4.7-3.6c0.6-0.5,1-0.7,1.1-0.5
		c0.1,0.2,0,0.8-0.4,1.6c-0.4,0.8-1.1,1.8-2,3.1c-0.9,1.2-2.1,2.6-3.5,4.1c-1.5,1.6-2.9,2.9-4.4,3.8c-1.4,1-2.6,1.6-3.4,1.8
		c-1.1,0.3-2.1,0-3-1c-0.9-0.9-1.7-2.1-2.2-3.5c-0.6-1.4-0.9-2.9-1.1-4.5c-0.2-1.6,0-2.9,0.4-4c0.6-1.6,1.5-3.3,2.7-5.1
		c1.2-1.8,2.5-3.5,3.9-5.1c1.4-1.6,2.9-3,4.4-4.3c1.5-1.2,2.8-2.1,4.1-2.6c0.7-0.3,1.6-0.4,2.7-0.2
		C400.7,75.6,401.7,76.1,402.5,76.9z M400.6,79c-0.3-0.3-0.6-0.4-1-0.3c-0.4,0.1-0.8,0.2-1.3,0.4c-0.7,0.4-1.5,1-2.4,1.8
		c-0.9,0.8-1.8,1.7-2.7,2.7c-0.9,1-1.8,2.1-2.7,3.3c-0.9,1.2-1.7,2.4-2.5,3.6c0.7-0.2,1.6-0.5,2.5-1.1c1-0.6,2-1.2,3-2
		c1-0.8,2-1.6,3-2.4c1-0.8,1.8-1.7,2.5-2.4c0.7-0.8,1.2-1.5,1.5-2.1C400.8,79.8,400.9,79.3,400.6,79z"/>
</g>
<g>
	<path fill="#D6AA51" d="M391.7,139.8c-0.6,0.5-1.5,0.8-2.7,0.9c-1.2,0-2.4-0.1-3.5-0.4s-1.9-0.7-2.5-1.3c-0.6-0.6-0.5-1.2,0.3-2
		c2.1-2.2,4.6-4.9,7.4-8.2c2.9-3.3,5.9-6.9,9.1-10.9c3.2-3.9,6.5-8,9.8-12.1c3.4-4.2,6.6-8.2,9.7-12.1c3.1-3.9,6-7.4,8.6-10.7
		c2.6-3.3,4.8-6,6.6-8c0.7-0.9,1.4-1.7,2.1-2.5c0.7-0.7,1.3-1.3,1.9-1.8c0.4-0.5,1.1-0.6,2.2-0.5c1,0.1,2.1,0.4,3.1,0.9
		c1,0.4,1.8,1,2.5,1.6c0.6,0.6,0.8,1.2,0.5,1.7c-1.1,1.6-2.6,3.8-4.6,6.6c-1.9,2.8-4,5.8-6.2,9.1c-2.2,3.3-4.5,6.6-6.7,10
		c-2.3,3.4-4.3,6.5-6,9.3c-1.7,2.8-3.1,5.2-4.1,7.1c-1,1.9-1.3,3-1,3.4c0.3,0.4,1.4-0.2,3.3-1.7c1.9-1.5,4.2-3.7,7-6.4
		c2.8-2.7,5.9-5.9,9.2-9.4c3.4-3.5,6.7-7.1,9.9-10.8c3.3-3.6,6.3-7.1,9.2-10.4c2.9-3.3,5.2-6,7.1-8.2c1.2-1.6,2.3-3,3.3-4.2
		c1-1.2,1.9-2.2,2.7-2.8c0.5-0.4,1.1-0.6,2-0.5c0.9,0.1,1.7,0.3,2.5,0.7c0.8,0.4,1.4,0.8,1.9,1.4c0.5,0.5,0.5,1,0.1,1.4
		c-0.8,0.9-1.9,2.2-3.3,4c-1.4,1.8-2.9,3.9-4.6,6.3c-1.7,2.4-3.5,5-5.4,7.9c-1.9,2.8-3.8,5.7-5.6,8.6c-1.9,2.9-3.6,5.8-5.2,8.5
		c-1.6,2.8-3,5.3-4.2,7.7c-1.2,2.3-2,4.4-2.6,6c-0.6,1.7-0.7,2.9-0.5,3.5c0.2,0.6,0.9,0.6,1.9,0c1.1-0.6,2.4-1.7,4.1-3.1
		c1.7-1.5,3.6-3.3,5.7-5.6c2.1-2.3,4.4-4.8,6.8-7.5c0.7-0.9,1.3-1.5,1.8-1.8c0.5-0.3,0.8-0.5,1.1-0.5c0.2,0,0.3,0.2,0.3,0.5
		c-0.1,0.3-0.3,0.8-0.6,1.3c-0.3,0.5-0.9,1.4-1.8,2.9c-0.9,1.5-1.9,3.1-3.1,5c-1.2,1.9-2.5,3.9-4,6c-1.4,2.1-2.9,4.1-4.3,5.9
		c-1.4,1.8-2.7,3.3-4,4.5c-1.2,1.2-2.3,1.9-3.1,2.1c-0.8,0.1-1.8-0.3-2.7-1.2c-1-1-1.9-2.2-2.7-3.7c-0.8-1.5-1.5-3.1-1.9-4.7
		c-0.5-1.7-0.7-3.1-0.5-4.5c0.1-0.9,0.4-2.1,1.1-3.6c0.6-1.6,1.5-3.4,2.6-5.4c1.1-2,2.3-4.3,3.7-6.6c1.4-2.4,2.9-4.8,4.4-7.4
		c-3,4.1-6.1,8.1-9.1,12.2c-3,4-5.8,7.7-8.5,10.9c-2.6,3.3-5,6-7.1,8.2c-2.1,2.2-3.8,3.6-5,4c-1,0.3-2,0.1-3-0.7
		c-1-0.8-1.9-2-2.5-3.6s-1.1-3.4-1.3-5.4c-0.2-2,0.1-4,0.8-6c0.2-0.7,1-2.4,2.3-5.3c1.3-2.8,2.9-6.2,4.7-10
		c-2.8,4.2-5.7,8.5-8.6,12.9c-2.9,4.4-5.7,8.5-8.4,12.4c-2.7,3.9-5.1,7.2-7.3,10.1C394.6,136.6,392.9,138.6,391.7,139.8z"/>
	<path fill="#D6AA51" d="M504.2,88.5c1.9-0.7,2.7-0.7,2.6-0.1c-0.1,0.7-1,1.5-2.6,2.6c-1.2,0.8-2.5,1.6-4.1,2.4
		c-1.5,0.7-3.1,1.4-4.7,2.1c-1.6,0.6-3.2,1.2-4.7,1.6c-1.5,0.5-2.9,0.8-4.1,1.1c-1.1,3-2.6,6.3-4.3,9.7c-1.7,3.5-3.6,6.7-5.5,9.8
		c-1.9,3.1-3.9,5.7-5.9,8c-2,2.2-3.7,3.6-5.2,4.1c-1,0.3-1.9,0.1-3-0.5c-1-0.6-1.9-1.5-2.7-2.7c-0.8-1.2-1.4-2.6-1.9-4.2
		c-0.5-1.6-0.6-3.1-0.4-4.7c0.2-1.8,1.1-4.1,2.5-6.8c1.5-2.7,3.3-5.4,5.4-8.1c2.1-2.7,4.4-5.3,6.8-7.6c2.4-2.3,4.6-4.1,6.6-5.2
		c0.7-1.4,1.5-2.5,2.5-3.4c1-0.9,2-1.5,3-1.7c1-0.2,1.8,0,2.6,0.7c0.8,0.7,1.3,1.9,1.4,3.8c0.1,0.8,0,1.9-0.3,3.1
		c2.4-0.2,5-0.6,7.8-1.2C499,90.4,501.7,89.5,504.2,88.5z M462.2,119.6c-0.2,0.9-0.1,1.5,0.2,1.8c0.3,0.3,0.8,0.3,1.4,0.1
		c0.6-0.2,1.3-0.6,2.1-1.1c0.8-0.5,1.6-1.1,2.4-1.8c1.1-0.9,2.3-2.2,3.5-3.7c1.3-1.6,2.6-3.3,3.8-5.1c1.3-1.9,2.5-3.8,3.5-5.8
		c1.1-2,2-3.9,2.6-5.7c-1-0.3-1.7-0.7-2.2-1.2c-1.7,0.9-3.5,2.2-5.4,4.1c-1.9,1.9-3.7,3.9-5.4,6.2c-1.7,2.2-3.1,4.5-4.3,6.7
		C463.3,116.2,462.5,118.1,462.2,119.6z"/>
	<path fill="#D6AA51" d="M537.2,92.3c0.5-0.7,1-1.2,1.5-1.5c0.5-0.4,0.9-0.6,1.2-0.6c0.3,0,0.4,0.1,0.4,0.3c0,0.3-0.2,0.7-0.6,1.4
		c-2,3-3.9,5.9-5.7,8.7c-1.9,2.8-3.7,5.4-5.5,7.7c-1.8,2.3-3.7,4.3-5.5,6c-1.9,1.7-3.8,2.9-5.8,3.7c-1,0.3-2,0.2-3-0.5
		c-1-0.7-1.8-1.7-2.5-3.1c-0.7-1.4-1.1-2.9-1.4-4.7c-0.2-1.8,0-3.5,0.6-5.3c0.3-0.8,1-1.9,2.2-3.5c1.2-1.5,2.5-3.1,4-4.8
		c1.5-1.7,3-3.3,4.4-4.9c1.5-1.6,2.7-2.9,3.6-3.9c-2.9,1.8-5.9,4-9,6.6c-3.1,2.6-6.1,5.4-9.2,8.5s-6,6.3-8.8,9.7
		c-2.8,3.4-5.5,6.8-8.1,10.3c-0.3,0.5-0.9,0.7-1.6,0.8c-0.7,0.1-1.4,0-2.1-0.2c-0.7-0.2-1.3-0.5-1.9-1c-0.6-0.5-0.8-1-0.8-1.6
		c0-0.4,0.5-1.5,1.5-3.2c1-1.8,2.3-3.9,3.8-6.3c1.6-2.5,3.3-5.2,5.1-8c1.9-2.9,3.6-5.7,5.4-8.3c1.7-2.7,3.3-5.1,4.6-7.3
		c1.4-2.2,2.3-3.8,2.8-4.9c0.2-0.4,0.7-0.6,1.5-0.6c0.8,0,1.5,0.2,2.3,0.6c0.8,0.3,1.4,0.8,1.9,1.4c0.5,0.6,0.6,1.3,0.3,2.1
		c-0.5,1.3-1.5,2.9-3,4.9c-1.5,2-3.1,4.1-4.9,6.3c-1.8,2.2-3.5,4.4-5.3,6.6c-1.7,2.2-3.1,4.2-4.1,6c2.1-2.5,4.4-5.1,6.9-7.9
		c2.5-2.8,4.9-5.6,7.4-8.3c2.5-2.7,4.9-5.2,7.2-7.5c2.4-2.3,4.6-4.1,6.6-5.5c0.7-0.5,1.7-0.7,2.8-0.5c1.1,0.2,2.2,0.5,3.2,1.1
		c1,0.6,1.7,1.2,2.2,2c0.5,0.8,0.6,1.5,0.2,2.2c-1.5,2.5-3.4,5.2-5.5,7.9c-2.1,2.7-4.2,5.3-6,7.7c-1.9,2.4-3.4,4.5-4.6,6.3
		c-1.2,1.8-1.5,2.9-1.1,3.4c0.6,0.7,1.8,0.5,3.7-0.6c1.8-1.1,3.9-2.5,6.1-4.5c2.3-1.9,4.5-4,6.8-6.4
		C533.8,96.4,535.7,94.2,537.2,92.3z"/>
	<path fill="#D6AA51" d="M538.3,71.4c0.3,0.2,1,0.2,2.1,0.1c1-0.1,2.3-0.2,3.7-0.4c1.4-0.2,2.9-0.5,4.5-0.8c1.6-0.3,3-0.6,4.4-1
		c1.7-2.4,3.3-4.7,4.7-6.9c1.5-2.2,2.7-4.2,3.6-5.9c0.3-0.6,0.9-0.8,1.6-0.6c0.7,0.2,1.4,0.7,2.1,1.3c0.7,0.6,1.2,1.4,1.6,2.2
		c0.4,0.8,0.5,1.4,0.2,1.9c-0.3,0.5-0.6,1.1-1.1,1.7c-0.5,0.6-1,1.3-1.5,2.1c0.9-0.3,1.7-0.5,2.4-0.6c0.7-0.1,1.2,0,1.5,0.2
		c0.4,0.3,0.6,0.8,0.6,1.6c0,0.8-0.1,1.6-0.3,2.4c-0.3,0.8-0.6,1.4-1,1.8c-0.4,0.4-0.9,0.5-1.4,0c-0.4-0.3-1.2-0.4-2.3-0.3
		c-1.2,0.1-2.4,0.4-3.8,0.7c-1.5,2.1-3.2,4.4-4.9,6.7c-1.7,2.3-3.5,4.6-5.2,6.9c-1.7,2.3-3.3,4.4-4.7,6.5c-1.5,2-2.7,3.8-3.6,5.2
		c-0.7,1.1-1.4,2.1-1.9,3.1c-0.6,1-1,1.9-1.4,2.7c-0.3,0.8-0.6,1.5-0.7,2.1c-0.1,0.6-0.1,1,0.2,1.2c0.4,0.4,1.3,0.3,2.8-0.4
		c1.5-0.6,3.2-1.7,5.3-3.2c2.1-1.5,4.4-3.4,6.9-5.7c2.5-2.3,5-4.9,7.6-7.9c0.6-0.7,1.1-1.3,1.6-1.6c0.5-0.3,0.9-0.5,1.2-0.5
		c0.3,0,0.4,0.1,0.4,0.4c0,0.3-0.2,0.7-0.7,1.3c-7.2,9.3-13.1,16.3-17.8,21.1c-4.7,4.7-7.9,7.2-9.6,7.5c-1.5,0.3-2.4-0.4-2.9-2
		c-0.5-1.6-0.5-3.7-0.2-6.3c0.4-2.6,1.1-5.5,2.1-8.7c1-3.2,2.4-6.2,3.9-9.1c0.8-1.4,2.2-3.6,4.3-6.5c2.1-2.9,4.3-6,6.8-9.4
		c-3,0.8-5.6,1.4-7.7,1.9c-2.2,0.4-3.5,0.6-3.9,0.4c-0.7-0.2-1.2-0.6-1.4-1.3c-0.3-0.7-0.4-1.4-0.3-2.1c0.1-0.7,0.3-1.2,0.7-1.7
		C537,71.1,537.6,71.1,538.3,71.4z"/>
	<path fill="#D6AA51" d="M591.8,98.2c-1.8,2.3-3.6,4.2-5.5,5.7c-1.9,1.5-3.7,2.7-5.7,3.4c-1,0.4-2,0.2-3-0.5c-1-0.7-1.9-1.8-2.5-3.2
		c-0.7-1.4-1.1-3-1.3-4.9c-0.2-1.9,0.1-3.8,0.8-5.8c0.3-0.8,0.9-1.8,1.9-3.2c1-1.3,2-2.7,3.3-4.1c1.2-1.4,2.5-2.8,3.7-4.2
		c1.3-1.4,2.4-2.6,3.3-3.6c-2.1,1.4-4.6,3.4-7.6,6c-3,2.6-6.1,5.5-9.3,8.6c-3.2,3.1-6.2,6.2-9.2,9.4c-2.9,3.2-5.4,6.1-7.3,8.7
		c-0.3,0.4-0.7,0.6-1.4,0.6c-0.6,0-1.3-0.2-1.9-0.5c-0.6-0.3-1.2-0.7-1.7-1.3c-0.5-0.6-0.8-1.1-0.8-1.8c0-0.3,0.6-1.4,1.7-3.3
		c1.2-1.8,2.7-4.2,4.6-7c1.9-2.8,4.1-6.1,6.6-9.6c2.5-3.6,5-7.2,7.6-10.9c2.6-3.7,5.1-7.4,7.6-11c2.5-3.6,4.8-6.9,6.8-9.8
		c2-2.9,3.7-5.4,5.1-7.4c1.4-2,2.1-3.3,2.4-3.8c0.2-0.4,0.7-0.6,1.5-0.5c0.8,0.1,1.5,0.4,2.3,0.9c0.8,0.5,1.4,1,1.9,1.7
		c0.5,0.7,0.5,1.4,0.1,2.1c-1,1.9-2.4,4.2-4.4,7c-2,2.8-4.2,5.8-6.7,9c-2.5,3.2-5.1,6.5-7.8,10c-2.7,3.4-5.3,6.6-7.6,9.6
		c-2.4,3-4.5,5.7-6.3,8.1c-1.8,2.4-3,4.2-3.7,5.3c2.1-2.5,4.5-5,6.9-7.7c2.5-2.7,5-5.3,7.5-7.9c2.5-2.6,5-4.9,7.4-7.1
		c2.4-2.2,4.6-4,6.7-5.4c0.4-0.5,1.1-0.6,2.1-0.5c1,0.1,2,0.4,3,0.9c1,0.4,1.8,1,2.5,1.6c0.6,0.6,0.8,1.2,0.5,1.7
		c-1.7,2.4-3.6,5-5.7,7.8c-2.1,2.7-4.1,5.3-6,7.8c-1.8,2.5-3.3,4.6-4.4,6.4c-1.1,1.8-1.4,3-0.9,3.5c0.4,0.4,1.2,0.4,2.3,0
		c1.2-0.4,2.5-1.1,4-2.1c1.5-1,3.1-2.2,4.9-3.6c1.7-1.4,3.3-2.9,4.8-4.4c0.8-0.8,1.3-1.3,1.6-1.3c0.3-0.1,0.4,0.1,0.4,0.6
		c-0.1,0.5-0.3,1.1-0.6,2c-0.3,0.8-0.8,1.7-1.3,2.7c-0.5,0.9-1,1.9-1.6,2.8C592.9,96.8,592.3,97.6,591.8,98.2z"/>
</g>
<polygon fill="#D6AA51" points="417.8,2.2 423.4,19.4 442.1,25.6 426,35.1 426,52.8 410.4,41.5 391.7,46.3 398.2,29.8 386.7,15.1 
	406.3,16.2 "/>
<g>
	<path fill="#D6AA51" d="M376.1,13.1c-31.8,0.2-84.9,6.4-132.4,14c-13.7,2.2-28.6,5.5-42.9,9.2c0.2,0.4,0.3,0.7,0.4,1.1
		c0,0.1,0.1,0.3,0.1,0.4c14.7-3.2,29-5.8,43-8.2c35.3-6.1,102.5-12.7,131.7-13.1C380.5,16.4,378.8,13.1,376.1,13.1z"/>
	<path fill="#D6AA51" d="M193.1,38.3c-34.1,9.1-63.2,19.2-63.2,19.2c22.1-7.5,42.5-13.1,61.9-17.6C192.3,39.4,192.7,38.9,193.1,38.3
		z"/>
</g>
<g>
	<path fill="#D6AA51" d="M185.9,47.5c-30.9,8.5-56,17.3-56,17.3c19.6-6.7,37.7-11.8,55.1-16C185.3,48.3,185.6,47.9,185.9,47.5z"/>
	<path fill="#D6AA51" d="M376.1,20.3c-31.8,0.2-84.9,6.4-132.4,14c-13.3,2.1-27.6,5.3-41.6,8.8c0,0.1,0,0.1-0.1,0.2
		c-0.1,0.3-0.3,0.5-0.5,0.7c-0.1,0.1-0.2,0.3-0.3,0.4c0,0.2-0.1,0.4-0.1,0.5c14.8-3.2,29-5.8,43.1-8.3
		c35.3-6.1,102.5-12.7,131.7-13.1C380.5,23.6,378.8,20.2,376.1,20.3z"/>
</g>
<g>
	<path fill="#D6AA51" d="M376.1,27.5c-31.8,0.2-84.9,6.4-132.4,14c-14.4,2.3-30.2,5.9-45.2,9.8c-0.4,0.6-0.8,1.2-1.2,1.8
		c16.2-3.6,31.7-6.5,47.1-9.1c35.3-6.1,102.5-12.7,131.7-13.1C380.5,30.7,378.8,27.4,376.1,27.5z"/>
	<path fill="#D6AA51" d="M180,56.3c-28.1,8-50.1,15.6-50.1,15.6c17.5-5.9,33.8-10.7,49.5-14.6C179.6,57,179.8,56.6,180,56.3z"/>
</g>
</svg>
